<?xml version="1.0" encoding="utf-8"?>
<!-- Generator: Adobe Illustrator 21.0.0, SVG Export Plug-In . SVG Version: 6.00 Build 0)  -->
<svg version="1.2" baseProfile="tiny" id="图层_1"
	 xmlns="http://www.w3.org/2000/svg" xmlns:xlink="http://www.w3.org/1999/xlink" x="0px" y="0px" viewBox="0 0 486.4 331.4"
	 xml:space="preserve">
<path fill="#ED1C24" stroke="#ED1C24" stroke-miterlimit="10" d="M249.5,207.9c-57.6,3.5-116.4-41.7-114.6-96.4
	c1.7-50.1,53.3-87.6,103.3-90c49.8-2.4,105.5,29.6,112.2,80C357.7,155.4,305.3,204.5,249.5,207.9z"/>
<path fill="#FFFFFF" stroke="#ED1C24" stroke-miterlimit="10" d="M165,111.4c8.4-25.3,34.8-42.6,61.3-47.1
	c38.9-6.6,80.9,13.8,92.7,45.7c16.4,44.5-30.4,99.8-80.8,97.9C190.6,206.1,150.9,153.6,165,111.4z"/>
<rect x="172.9" y="199.7" stroke="#000000" stroke-miterlimit="10" width="138.5" height="14.4"/>
<path fill="#ED1C24" d="M298.4,192.8c-37.1,6.7-87.2,4.8-112.2-0.2c-2.5-0.5-7.9-1.7-9.3-5.4c-0.6-1.6-0.4-3.3,0-4.5
	c43.6,0,87.3,0,130.9,0c0.4,1.4,0.7,3.2,0,5C306.2,191.3,300.9,192.4,298.4,192.8z"/>
<g>
	<g>
		<path fill="#00A14B" stroke="#00A651" stroke-miterlimit="10" d="M231.3,114.7c4.3-0.2,4.7-1,4.7-4.8V90.8
			c-0.1-3.7-0.3-4.6-4.3-4.8v-0.7h11.6c6.7,0,9.3,2.4,9.3,6.6c0,4.2-4,6.1-6.2,6.7v0.1c4.2,0.6,8.3,3.1,8.3,7.7
			c0,3.3-1.7,5.7-4.6,7.2c-2.4,1.2-5.5,1.7-9.1,1.7h-9.6V114.7z M242,98.5c5.3,0,7.6-2.3,7.6-6c0-2.1-0.8-6.1-7.8-6.1
			c-1.5,0-2.3,0-2.6,0.1c-0.3,0-0.6,0.1-0.6,1.1v11H242z M238.6,99.5v10.7c0,3.2,0.6,4.1,4.4,4.1c4.7,0,8.4-1.8,8.4-7.1
			s-3.8-7.7-9.4-7.7H238.6z"/>
		<path fill="#00A14B" stroke="#00A651" stroke-miterlimit="10" d="M250,140.3c-0.8-2.8-2-6.6-6.6-6.6c-3.5,0-5.2,2.3-5.2,5.4
			c0,4,2.9,5.6,6,7.2c2.1,1.1,8,3.1,8,9.1c0,5-3.8,8.6-9.9,8.7c-2-0.1-3.6-0.4-4.8-0.8c-1.2-0.4-1.8-0.7-2.1-0.9
			c-0.4-1.2-0.9-4.7-1.2-7.6h0.8c0.8,2.6,2.8,8,8.4,8c3.7,0,6-2,6-6.2c0-4.8-3.9-6.5-6.5-7.9c-0.4-0.2-7.5-2.5-7.5-8.4
			c0-4,3.3-7.7,8.9-7.7c1.6,0,3,0.1,5.6,1c0.2,1.6,0.4,3.4,0.8,6.7H250z"/>
	</g>
</g>
<g>
	<g>
		<path fill="#00A14B" stroke="#00A651" stroke-miterlimit="10" d="M259.3,231c-3.5,0.5-3.8,1.2-5.9,5.3
			c-0.8,1.4-7.1,14.9-10.9,24.6h-0.6c-3.1-8.6-6.7-17-10.1-25.6c-1.3-3.4-2.1-4.1-5-4.3v-0.7h10.4v0.7c-2.4,0.3-3.5,0.4-3.5,1.6
			c0,0.4,0.1,1,0.4,1.7c1.1,2.8,4.8,12.2,8.8,22h0c1-2,9.2-20.6,9.2-23.3c0-1.4-1.2-1.6-3.6-2v-0.7h10.8V231z"/>
		<path fill="#00A14B" stroke="#00A651" stroke-miterlimit="10" d="M232.7,307.7c4-0.2,4.4-1,4.4-4.5v-19.7c0-3.5-0.4-4.3-4.4-4.5
			v-0.7h20.4c0,2.6,0.2,5.1,0.4,7.4l-0.9,0.1c-0.9-5.1-2.2-6.3-7.7-6.3h-4c-1.2,0-1.3,0.1-1.3,1.3v11.7h5.5c4.5,0,4.9-0.4,5.7-3.6
			h0.8v9.3h-0.8c-0.8-3.7-1.2-4.3-5.7-4.3h-5.5v9.4c0,3.5,0.4,4.3,5.3,4.5v0.7h-12.2V307.7z"/>
	</g>
</g>
<rect x="171.9" y="192.6" fill="#FFFFFF" width="138.4" height="7.9"/>
<rect x="306.7" y="198.5" fill="#00AEEF" stroke="#000000" stroke-miterlimit="10" width="170.8" height="17.9"/>
<rect x="6.1" y="198.6" fill="#00AEEF" stroke="#000000" stroke-miterlimit="10" width="170.8" height="17.7"/>
</svg>
